<svg xmlns="http://www.w3.org/2000/svg" width="940" height="120" viewBox="0 0 940 120">
  <defs>
    <linearGradient id="titleG" x1="0" x2="1">
      <stop offset="0" stop-color="#ff6ec7"/>
      <stop offset="1" stop-color="#7c5cff"/>
    </linearGradient>
    <linearGradient id="accent" x1="0" x2="1">
      <stop offset="0" stop-color="#ff4da6"/>
      <stop offset="1" stop-color="#ff8a00"/>
    </linearGradient>
  </defs>

  <!-- Background -->
  <rect width="100%" height="100%" fill="#0b0f13" rx="4" />

  <!-- Header -->
  <text x="20" y="28" font-family="'Segoe UI', Roboto, Arial, sans-serif" font-size="18" font-weight="700" fill="#dbeafe">GitHub Trophies</text>
  <line x1="20" y1="34" x2="920" y2="34" stroke="#1f2937" stroke-width="1" opacity="0.7" />

  <!-- Cards -->
  <g transform="translate(24,44)">
    <!-- card size w=108 h=62, gap=10 -->

    <!-- helper: a single trophy-like icon group repeated 8 times with different accent colors/text -->

    <!-- Card template function repeated manually for precise placement -->
    <!-- 1 -->
    <g transform="translate(0,0)">
      <g>
        <rect x="0" y="0" width="108" height="62" rx="6" fill="#0f1720" stroke="#151a20"/>
      </g>
      <g transform="translate(8,8)">
        <!-- wreath (simplified) -->
        <g transform="translate(10,6)">
          <circle cx="12" cy="12" r="12" fill="#0b1220" stroke="#2b3340" stroke-width="1"/>
          <g fill="none" stroke="#ff5bd6" stroke-width="1.5" stroke-linecap="round">
            <path d="M4 12c2-3 6-6 12-6"/>
            <path d="M20 12c-2-3-6-6-12-6"/>
            <path d="M4 12c2 3 6 6 12 6" transform="translate(0,0)"/>
          </g>
          <text x="12" y="16" font-family="Arial" font-size="10" fill="#fff" text-anchor="middle" font-weight="700">S</text>
        </g>
        <!-- label -->
        <text x="42" y="18" font-family="Arial, Helvetica, sans-serif" font-size="12" fill="#ff66b8">MultiLanguage</text>
        <text x="42" y="32" font-family="Arial, Helvetica, sans-serif" font-size="10" fill="#9aa4b2">Rainbow Lang User · 14pt</text>
      </g>
    </g>

    <!-- 2 -->
    <g transform="translate(118,0)">
      <rect x="0" y="0" width="108" height="62" rx="6" fill="#0f1720" stroke="#151a20"/>
      <g transform="translate(8,8)">
        <g transform="translate(10,6)">
          <circle cx="12" cy="12" r="12" fill="#0b1220" stroke="#2b3340" stroke-width="1"/>
          <g fill="none" stroke="#ff88c2" stroke-width="1.5" stroke-linecap="round">
            <path d="M4 12c2-3 6-6 12-6"/>
            <path d="M20 12c-2-3-6-6-12-6"/>
          </g>
          <text x="12" y="16" font-family="Arial" font-size="10" fill="#fff" text-anchor="middle" font-weight="700">S</text>
        </g>
        <text x="42" y="18" font-family="Arial, Helvetica, sans-serif" font-size="12" fill="#ff8fbf">Joined2020</text>
        <text x="42" y="32" font-family="Arial, Helvetica, sans-serif" font-size="10" fill="#9aa4b2">Everything started... · Joined 2020</text>
      </g>
    </g>

    <!-- 3 -->
    <g transform="translate(236,0)">
      <rect x="0" y="0" width="108" height="62" rx="6" fill="#0f1720" stroke="#151a20"/>
      <g transform="translate(8,8)">
        <g transform="translate(10,6)">
          <circle cx="12" cy="12" r="12" fill="#0b1220" stroke="#2b3340" stroke-width="1"/>
          <g fill="none" stroke="#9fff8d" stroke-width="1.5" stroke-linecap="round">
            <path d="M4 12c2-3 6-6 12-6"/>
            <path d="M20 12c-2-3-6-6-12-6"/>
          </g>
          <text x="12" y="16" font-family="Arial" font-size="10" fill="#fff" text-anchor="middle" font-weight="700">A</text>
        </g>
        <text x="42" y="18" font-family="Arial, Helvetica, sans-serif" font-size="12" fill="#c6ffd6">Experience</text>
        <text x="42" y="32" font-family="Arial, Helvetica, sans-serif" font-size="10" fill="#9aa4b2">Experienced Dev · 18pt</text>
      </g>
    </g>

    <!-- 4 -->
    <g transform="translate(354,0)">
      <rect x="0" y="0" width="108" height="62" rx="6" fill="#0f1720" stroke="#151a20"/>
      <g transform="translate(8,8)">
        <g transform="translate(10,6)">
          <circle cx="12" cy="12" r="12" fill="#0b1220" stroke="#2b3340" stroke-width="1"/>
          <g fill="none" stroke="#ffd36b" stroke-width="1.5" stroke-linecap="round">
            <path d="M4 12c2-3 6-6 12-6"/>
            <path d="M20 12c-2-3-6-6-12-6"/>
          </g>
          <text x="12" y="16" font-family="Arial" font-size="10" fill="#fff" text-anchor="middle" font-weight="700">A</text>
        </g>
        <text x="42" y="18" font-family="Arial, Helvetica, sans-serif" font-size="12" fill="#fff1c7">Stars</text>
        <text x="42" y="32" font-family="Arial, Helvetica, sans-serif" font-size="10" fill="#9aa4b2">You are a Star · 40pt</text>
      </g>
    </g>

    <!-- 5 -->
    <g transform="translate(472,0)">
      <rect x="0" y="0" width="108" height="62" rx="6" fill="#0f1720" stroke="#151a20"/>
      <g transform="translate(8,8)">
        <g transform="translate(10,6)">
          <circle cx="12" cy="12" r="12" fill="#0b1220" stroke="#2b3340" stroke-width="1"/>
          <g fill="none" stroke="#75f1ff" stroke-width="1.5" stroke-linecap="round">
            <path d="M4 12c2-3 6-6 12-6"/>
            <path d="M20 12c-2-3-6-6-12-6"/>
          </g>
          <text x="12" y="16" font-family="Arial" font-size="10" fill="#fff" text-anchor="middle" font-weight="700">A</text>
        </g>
        <text x="42" y="18" font-family="Arial, Helvetica, sans-serif" font-size="12" fill="#dffcff">Commits</text>
        <text x="42" y="32" font-family="Arial, Helvetica, sans-serif" font-size="10" fill="#9aa4b2">High Committer · 116pt</text>
      </g>
    </g>

    <!-- 6 -->
    <g transform="translate(590,0)">
      <rect x="0" y="0" width="108" height="62" rx="6" fill="#0f1720" stroke="#151a20"/>
      <g transform="translate(8,8)">
        <g transform="translate(10,6)">
          <circle cx="12" cy="12" r="12" fill="#0b1220" stroke="#2b3340" stroke-width="1"/>
          <g fill="none" stroke="#9b8bff" stroke-width="1.5" stroke-linecap="round">
            <path d="M4 12c2-3 6-6 12-6"/>
            <path d="M20 12c-2-3-6-6-12-6"/>
          </g>
          <text x="12" y="16" font-family="Arial" font-size="10" fill="#fff" text-anchor="middle" font-weight="700">A</text>
        </g>
        <text x="42" y="18" font-family="Arial, Helvetica, sans-serif" font-size="12" fill="#efeaff">Followers</text>
        <text x="42" y="32" font-family="Arial, Helvetica, sans-serif" font-size="10" fill="#9aa4b2">Dynamic User · 23pt</text>
      </g>
    </g>

    <!-- 7 -->
    <g transform="translate(708,0)">
      <rect x="0" y="0" width="108" height="62" rx="6" fill="#0f1720" stroke="#151a20"/>
      <g transform="translate(8,8)">
        <g transform="translate(10,6)">
          <circle cx="12" cy="12" r="12" fill="#0b1220" stroke="#2b3340" stroke-width="1"/>
          <g fill="none" stroke="#45e6b6" stroke-width="1.5" stroke-linecap="round">
            <path d="M4 12c2-3 6-6 12-6"/>
            <path d="M20 12c-2-3-6-6-12-6"/>
          </g>
          <text x="12" y="16" font-family="Arial" font-size="10" fill="#fff" text-anchor="middle" font-weight="700">A</text>
        </g>
        <text x="42" y="18" font-family="Arial, Helvetica, sans-serif" font-size="12" fill="#e6fff6">Repositories</text>
        <text x="42" y="32" font-family="Arial, Helvetica, sans-serif" font-size="10" fill="#9aa4b2">High Repo Creator · 28pt</text>
      </g>
    </g>

    <!-- 8 -->
    <g transform="translate(826,0)">
      <rect x="0" y="0" width="108" height="62" rx="6" fill="#0f1720" stroke="#151a20"/>
      <g transform="translate(8,8)">
        <g transform="translate(10,6)">
          <circle cx="12" cy="12" r="12" fill="#0b1220" stroke="#2b3340" stroke-width="1"/>
          <g fill="none" stroke="#88b8ff" stroke-width="1.5" stroke-linecap="round">
            <path d="M4 12c2-3 6-6 12-6"/>
            <path d="M20 12c-2-3-6-6-12-6"/>
          </g>
          <text x="12" y="16" font-family="Arial" font-size="10" fill="#fff" text-anchor="middle" font-weight="700">C</text>
        </g>
        <text x="42" y="18" font-family="Arial, Helvetica, sans-serif" font-size="12" fill="#d9eaff">PullRequest</text>
        <text x="42" y="32" font-family="Arial, Helvetica, sans-serif" font-size="10" fill="#9aa4b2">First Pull · 5pt</text>
      </g>
    </g>

  </g>

</svg>
