<svg xmlns="http://www.w3.org/2000/svg" width="1000" height="220" viewBox="0 0 1000 220">
  <defs>
    <linearGradient id="hdr" x1="0" x2="1">
      <stop offset="0" stop-color="#00e5ff"/>
      <stop offset="1" stop-color="#00a3ff"/>
    </linearGradient>
    <linearGradient id="cardGrad" x1="0" x2="0" y1="0" y2="1">
      <stop offset="0" stop-color="#1f2937"/>
      <stop offset="1" stop-color="#0b1220"/>
    </linearGradient>
  </defs>

  <!-- Background -->
  <rect width="100%" height="100%" fill="#0D1117" rx="6" />

  <!-- Title -->
  <text x="40" y="40" font-family="Fira Code, 'Courier New', monospace" font-size="26" font-weight="700" fill="url(#hdr)">GitHub Trophies</text>

  <!-- Trophy cards row -->
  <g transform="translate(24,64)">
    <!-- Parameters -->
    <!-- cardWidth=112, gap=14 -->
    <!-- We'll create 8 cards -->
    <!-- Colors for accents -->
    <g id="colors">
      <rect id="c0" width="0" height="0" fill="#ff5bd6"/>
    </g>

    <!-- Function to draw a card (manually repeated) -->
    <!-- Card 1 -->
    <g transform="translate(0,0)">
      <rect x="0" y="0" width="112" height="120" rx="8" fill="url(#cardGrad)" stroke="#1d2630"/>
      <!-- cup icon -->
      <g transform="translate(18,14)">
        <path d="M26 6c4 0 8 3 8 7v6h4c1 0 2 1 2 2v6c0 1-1 2-2 2H6c-1 0-2-1-2-2v-6c0-1 1-2 2-2h4v-6c0-4 4-7 8-7z" fill="#ff5bd6" opacity="0.95"/>
        <rect x="12" y="54" width="24" height="6" rx="2" fill="#ff5bd6"/>
      </g>
      <text x="56" y="98" font-family="Arial, Helvetica, sans-serif" font-size="11" fill="#ffd6f6" text-anchor="middle">MultiLanguage</text>
      <text x="56" y="112" font-family="Arial, Helvetica, sans-serif" font-size="9" fill="#9ca3af" text-anchor="middle">Rainbow Lang User • 14pt</text>
    </g>

    <!-- Card 2 -->
    <g transform="translate(126,0)">
      <rect x="0" y="0" width="112" height="120" rx="8" fill="url(#cardGrad)" stroke="#1d2630"/>
      <g transform="translate(18,14)">
        <path d="M26 6c4 0 8 3 8 7v6h4c1 0 2 1 2 2v6c0 1-1 2-2 2H6c-1 0-2-1-2-2v-6c0-1 1-2 2-2h4v-6c0-4 4-7 8-7z" fill="#ff79b4" opacity="0.95"/>
        <rect x="12" y="54" width="24" height="6" rx="2" fill="#ff79b4"/>
      </g>
      <text x="56" y="98" font-family="Arial, Helvetica, sans-serif" font-size="11" fill="#ffd6f6" text-anchor="middle">Joined2020</text>
      <text x="56" y="112" font-family="Arial, Helvetica, sans-serif" font-size="9" fill="#9ca3af" text-anchor="middle">Everything started... • Joined 2020</text>
    </g>

    <!-- Card 3 -->
    <g transform="translate(252,0)">
      <rect x="0" y="0" width="112" height="120" rx="8" fill="url(#cardGrad)" stroke="#1d2630"/>
      <g transform="translate(18,14)">
        <path d="M26 6c4 0 8 3 8 7v6h4c1 0 2 1 2 2v6c0 1-1 2-2 2H6c-1 0-2-1-2-2v-6c0-1 1-2 2-2h4v-6c0-4 4-7 8-7z" fill="#a7ff83" opacity="0.95"/>
        <rect x="12" y="54" width="24" height="6" rx="2" fill="#a7ff83"/>
      </g>
      <text x="56" y="98" font-family="Arial, Helvetica, sans-serif" font-size="11" fill="#dfffe0" text-anchor="middle">Experience</text>
      <text x="56" y="112" font-family="Arial, Helvetica, sans-serif" font-size="9" fill="#9ca3af" text-anchor="middle">Experienced Dev • 18pt</text>
    </g>

    <!-- Card 4 -->
    <g transform="translate(378,0)">
      <rect x="0" y="0" width="112" height="120" rx="8" fill="url(#cardGrad)" stroke="#1d2630"/>
      <g transform="translate(18,14)">
        <path d="M26 6c4 0 8 3 8 7v6h4c1 0 2 1 2 2v6c0 1-1 2-2 2H6c-1 0-2-1-2-2v-6c0-1 1-2 2-2h4v-6c0-4 4-7 8-7z" fill="#ffd166" opacity="0.95"/>
        <rect x="12" y="54" width="24" height="6" rx="2" fill="#ffd166"/>
      </g>
      <text x="56" y="98" font-family="Arial, Helvetica, sans-serif" font-size="11" fill="#fff4d1" text-anchor="middle">Stars</text>
      <text x="56" y="112" font-family="Arial, Helvetica, sans-serif" font-size="9" fill="#9ca3af" text-anchor="middle">You are a Star • 40pt</text>
    </g>

    <!-- Card 5 -->
    <g transform="translate(504,0)">
      <rect x="0" y="0" width="112" height="120" rx="8" fill="url(#cardGrad)" stroke="#1d2630"/>
      <g transform="translate(18,14)">
        <path d="M26 6c4 0 8 3 8 7v6h4c1 0 2 1 2 2v6c0 1-1 2-2 2H6c-1 0-2-1-2-2v-6c0-1 1-2 2-2h4v-6c0-4 4-7 8-7z" fill="#7ee7ff" opacity="0.95"/>
        <rect x="12" y="54" width="24" height="6" rx="2" fill="#7ee7ff"/>
      </g>
      <text x="56" y="98" font-family="Arial, Helvetica, sans-serif" font-size="11" fill="#dff9ff" text-anchor="middle">Commits</text>
      <text x="56" y="112" font-family="Arial, Helvetica, sans-serif" font-size="9" fill="#9ca3af" text-anchor="middle">High Committer • 116pt</text>
    </g>

    <!-- Card 6 -->
    <g transform="translate(630,0)">
      <rect x="0" y="0" width="112" height="120" rx="8" fill="url(#cardGrad)" stroke="#1d2630"/>
      <g transform="translate(18,14)">
        <path d="M26 6c4 0 8 3 8 7v6h4c1 0 2 1 2 2v6c0 1-1 2-2 2H6c-1 0-2-1-2-2v-6c0-1 1-2 2-2h4v-6c0-4 4-7 8-7z" fill="#8b5cf6" opacity="0.95"/>
        <rect x="12" y="54" width="24" height="6" rx="2" fill="#8b5cf6"/>
      </g>
      <text x="56" y="98" font-family="Arial, Helvetica, sans-serif" font-size="11" fill="#efe9ff" text-anchor="middle">Followers</text>
      <text x="56" y="112" font-family="Arial, Helvetica, sans-serif" font-size="9" fill="#9ca3af" text-anchor="middle">Dynamic User • 23pt</text>
    </g>

    <!-- Card 7 -->
    <g transform="translate(756,0)">
      <rect x="0" y="0" width="112" height="120" rx="8" fill="url(#cardGrad)" stroke="#1d2630"/>
      <g transform="translate(18,14)">
        <path d="M26 6c4 0 8 3 8 7v6h4c1 0 2 1 2 2v6c0 1-1 2-2 2H6c-1 0-2-1-2-2v-6c0-1 1-2 2-2h4v-6c0-4 4-7 8-7z" fill="#38d9a9" opacity="0.95"/>
        <rect x="12" y="54" width="24" height="6" rx="2" fill="#38d9a9"/>
      </g>
      <text x="56" y="98" font-family="Arial, Helvetica, sans-serif" font-size="11" fill="#dfffee" text-anchor="middle">Repositories</text>
      <text x="56" y="112" font-family="Arial, Helvetica, sans-serif" font-size="9" fill="#9ca3af" text-anchor="middle">High Repo Creator • 28pt</text>
    </g>

    <!-- Card 8 (small) -->
    <g transform="translate(882,0)">
      <rect x="0" y="0" width="112" height="120" rx="8" fill="url(#cardGrad)" stroke="#1d2630"/>
      <g transform="translate(18,14)">
        <path d="M26 6c4 0 8 3 8 7v6h4c1 0 2 1 2 2v6c0 1-1 2-2 2H6c-1 0-2-1-2-2v-6c0-1 1-2 2-2h4v-6c0-4 4-7 8-7z" fill="#6ea8fe" opacity="0.95"/>
        <rect x="12" y="54" width="24" height="6" rx="2" fill="#6ea8fe"/>
      </g>
      <text x="56" y="98" font-family="Arial, Helvetica, sans-serif" font-size="11" fill="#e8f3ff" text-anchor="middle">PullRequest</text>
      <text x="56" y="112" font-family="Arial, Helvetica, sans-serif" font-size="9" fill="#9ca3af" text-anchor="middle">First Pull • 5pt</text>
    </g>

  </g>

  <!-- Footer small note -->
  <text x="40" y="208" font-family="Arial, Helvetica, sans-serif" font-size="10" fill="#6b7280">Local fallback: generated on 2025-10-25</text>

</svg>
